<svg width="320" height="279" viewBox="0 0 320 279" fill="none" xmlns="http://www.w3.org/2000/svg">
<path fill-rule="evenodd" clip-rule="evenodd" d="M24.0355 135.373C0.258057 144.555 -7.86166 172.887 8.74387 191.382C30.2655 215.351 80.2293 197.332 103.952 182.566C127.675 167.799 160.673 161.592 188.427 189.949C223.251 225.529 301.809 216.76 316.275 172.953C330.74 129.146 302.257 88.0363 245.13 92.4907C203.609 95.7284 179.385 85.5399 169.336 75.9026C155.027 62.1783 139.074 48.8026 110.895 52.6796C83.894 56.395 69.9276 80.6304 64.0369 95.0615C54.6733 118.002 48.8363 125.795 24.0355 135.373Z" fill="#4D345B"/>
<path fill-rule="evenodd" clip-rule="evenodd" d="M70 252C77.7317 252 84 245.732 84 238C84 230.268 77.7317 224 70 224C62.268 224 56 230.268 56 238C56 245.732 62.268 252 70 252Z" stroke="#F48026" stroke-width="8"/>
<path fill-rule="evenodd" clip-rule="evenodd" d="M81.4945 200.632C95.9118 209.644 108.047 222.778 112.115 239.353C116.827 258.55 122.416 269.935 151.566 270.139C181.264 270.347 218.435 249 232.961 230.068C247.368 211.29 256.18 180.511 239.552 155.673C222.924 130.834 198.175 129.189 181.626 138.478C165.076 147.767 134.894 154.173 102.768 152.984C70.6413 151.795 61.5192 166.011 60.8101 173.928C59.8036 185.172 69.7671 193.302 81.4945 200.632Z" fill="#3FB3A2"/>
<path fill-rule="evenodd" clip-rule="evenodd" d="M222 58C235.807 58 247 46.8079 247 33C247 19.1934 235.807 8 222 8C208.193 8 197 19.1934 197 33C197 46.8079 208.193 58 222 58Z" stroke="#3FB3A2" stroke-width="16"/>
<path fill-rule="evenodd" clip-rule="evenodd" d="M101.224 89H218.776C226.067 89 232 94.9233 232 102.204V170.303C232 177.583 226.067 183.507 218.776 183.507H174.984L176.305 206.197H186.302C188.737 206.197 190.71 208.168 190.71 210.599C190.71 213.03 188.737 215 186.302 215H133.698C131.263 215 129.29 213.03 129.29 210.599C129.29 208.168 131.263 206.197 133.698 206.197H143.695L145.016 183.507H101.224C93.9326 183.507 88 177.583 88 170.303V102.204C88 94.9233 93.9326 89 101.224 89ZM153.848 183.508L152.526 206.197H167.474L166.152 183.508H153.848ZM223.183 170.303C223.183 172.729 221.206 174.704 218.776 174.704H101.224C98.7941 174.704 96.8165 172.729 96.8165 170.303V102.204C96.8165 99.7772 98.7941 97.8027 101.224 97.8027H218.776C221.207 97.8027 223.183 99.7772 223.183 102.204V170.303ZM134.833 114.17C136.398 112.308 139.179 112.065 141.043 113.628C142.907 115.191 143.15 117.967 141.586 119.829L127.777 136.254L141.586 152.679C143.151 154.54 142.909 157.317 141.043 158.879C139.18 160.442 136.399 160.201 134.833 158.338L118.645 139.083C117.27 137.447 117.27 135.06 118.645 133.424L134.833 114.17ZM185.167 114.17C183.602 112.307 180.821 112.065 178.957 113.628C177.093 115.191 176.85 117.967 178.415 119.829L192.223 136.254L178.415 152.679C176.85 154.54 177.093 157.317 178.957 158.879C180.822 160.443 183.603 160.198 185.167 158.338L201.355 139.083C202.73 137.447 202.73 135.06 201.355 133.424L185.167 114.17ZM163.543 115.379C164.44 113.118 167.002 112.011 169.265 112.907C171.528 113.802 172.635 116.36 171.739 118.62L156.458 157.129C155.56 159.39 152.998 160.496 150.735 159.6C148.472 158.704 147.365 156.146 148.261 153.887L163.543 115.379Z" fill="white"/>
</svg>
