<svg width="136" height="30" viewBox="0 0 136 30" fill="#fff" xmlns="http://www.w3.org/2000/svg">
<g clip-path="url(#clip0_6478_486)">
<path d="M26.8156 17.9025C26.8455 18.9249 27.0312 19.8527 27.3371 20.7499C28.2428 23.4073 29.8878 25.408 32.5566 26.4454C34.3816 27.1547 36.2564 27.2074 38.1404 26.7065C40.1482 26.1729 41.7932 25.0985 42.9394 23.3347C43.1578 22.9989 43.3051 22.6183 43.5079 22.2711C43.5683 22.1679 43.705 22.042 43.8081 22.0405C44.8398 22.0249 45.8714 22.0334 46.9024 22.037C46.9358 22.037 46.9693 22.0576 47.0561 22.0854C46.9721 22.3629 46.901 22.6446 46.8028 22.915C45.5726 26.2938 43.1258 28.3749 39.7391 29.3568C36.8441 30.1957 33.9333 30.1736 31.0831 29.0992C28.0479 27.9545 25.88 25.8627 24.558 22.9135C23.4076 20.3472 23.1329 17.6556 23.542 14.883C23.9625 12.0363 25.1358 9.56598 27.229 7.56954C28.8191 6.05264 30.7096 5.07719 32.859 4.63677C35.907 4.01209 38.8618 4.29811 41.6238 5.78299C44.9664 7.5795 46.9572 10.3984 47.6359 14.1252C47.8465 15.2807 47.8914 16.4568 47.7733 17.6336C47.754 17.8271 47.6879 17.9103 47.4915 17.9047C47.2311 17.8961 46.97 17.9032 46.7089 17.9032C40.2222 17.9032 33.7355 17.9032 27.2489 17.9032H26.8149L26.8156 17.9025ZM44.3574 15.1426C43.9042 10.5905 39.8714 6.89931 34.9835 7.26431C30.06 7.63144 27.3592 11.7439 26.9486 15.1426H44.3574Z" fill="#fff"/>
<path d="M103.178 30C100.541 29.9104 98.0998 29.2693 95.9404 27.7375C93.5078 26.0121 91.9938 23.6485 91.3015 20.767C90.5438 17.6122 90.6917 14.4945 92.0087 11.5098C93.6708 7.74103 96.5765 5.45856 100.622 4.67379C103.511 4.11314 106.315 4.4205 108.956 5.7517C112.085 7.32836 114.073 9.87977 115.003 13.2288C115.882 16.3942 115.766 19.5525 114.493 22.5962C112.922 26.3522 110.106 28.6994 106.125 29.5852C105.16 29.8001 104.162 29.8655 103.179 30H103.178ZM112.1 17.1711C112.108 15.7197 111.849 14.3223 111.299 12.9769C109.757 9.20456 106.15 7.021 102.118 7.53042C98.5046 7.9872 96.1532 10.0484 94.9024 13.4045C94.0834 15.6009 94.0429 17.8613 94.6391 20.1153C95.1813 22.1644 96.2428 23.9075 97.9667 25.1861C100.078 26.7521 102.454 27.1996 105.006 26.7008C107.01 26.3088 108.651 25.2729 109.925 23.6777C111.445 21.7773 112.087 19.5774 112.1 17.1711Z" fill="#fff"/>
<path d="M120.592 4.88452V7.7255C120.681 7.66573 120.725 7.65079 120.748 7.61949C122.605 5.12002 125.158 4.20149 128.178 4.37367C129.811 4.46687 131.314 4.96207 132.627 5.96242C134.121 7.10081 135.048 8.62553 135.458 10.432C135.689 11.4523 135.837 12.5145 135.845 13.559C135.884 18.6931 135.864 23.8272 135.863 28.9621C135.863 29.0894 135.85 29.2168 135.841 29.3662C135.711 29.3747 135.607 29.3875 135.503 29.3875C134.638 29.389 133.772 29.3754 132.907 29.3954C132.611 29.4025 132.547 29.2943 132.551 29.0268C132.564 28.1972 132.556 27.3669 132.556 26.5366C132.556 22.3274 132.556 18.1175 132.556 13.9084C132.556 12.5892 132.346 11.3143 131.733 10.1282C130.616 7.96527 128.541 7.05385 126.283 7.21322C123.197 7.43094 121.167 9.69775 120.731 12.5807C120.638 13.199 120.595 13.8301 120.594 14.4562C120.583 19.2701 120.588 24.0848 120.588 28.8987V29.389C120.42 29.389 120.305 29.389 120.19 29.389C119.538 29.389 118.886 29.389 118.234 29.389C117.599 29.389 117.281 29.0766 117.281 28.4526C117.281 20.7572 117.281 13.0617 117.282 5.3662C117.282 5.04531 117.442 4.88523 117.763 4.88523C118.686 4.88523 119.609 4.88523 120.593 4.88523L120.592 4.88452Z" fill="#fff"/>
<path d="M68.0014 29.3748H64.7442C64.7357 29.2154 64.7214 29.0667 64.7214 28.918C64.72 23.9376 64.7314 18.9571 64.7136 13.976C64.7079 12.4555 64.4646 10.9735 63.6087 9.66508C62.3742 7.77892 60.5699 7.06529 58.3892 7.22182C55.2444 7.44736 53.2529 9.78888 52.8495 12.7231C52.7705 13.2958 52.7392 13.8799 52.7385 14.4584C52.7293 19.2965 52.73 24.1347 52.7385 28.9728C52.7385 29.2851 52.6745 29.4075 52.3308 29.3968C51.5019 29.3705 50.6709 29.3698 49.8413 29.3968C49.4948 29.4082 49.4351 29.2794 49.4351 28.9714C49.4422 23.1606 49.44 17.3499 49.44 11.5391C49.44 9.45234 49.4464 7.36483 49.4336 5.27803C49.4315 4.9671 49.5112 4.86821 49.8292 4.87603C50.6823 4.89738 51.5368 4.8924 52.3899 4.87746C52.6503 4.87319 52.7435 4.94505 52.7385 5.21613C52.7236 5.99877 52.7342 6.78141 52.7371 7.56404C52.7371 7.60816 52.7542 7.65227 52.7755 7.75401C52.9448 7.53559 53.0758 7.34917 53.2237 7.17771C55.0864 5.02047 57.4898 4.20794 60.2732 4.36447C61.7047 4.44487 63.053 4.82765 64.2639 5.60816C65.9993 6.72733 67.053 8.3417 67.588 10.3132C67.8975 11.4531 68.005 12.6171 68.0035 13.7967C67.9978 18.8604 68.0014 23.9241 68.0014 28.987V29.3734V29.3748Z" fill="#fff"/>
<path d="M25.2707 4.90703C25.0729 5.41717 24.8901 5.89956 24.6994 6.37981C22.3301 12.3556 19.9602 18.3307 17.5909 24.3058C16.9541 25.9117 16.3138 27.5168 15.6877 29.1269C15.6087 29.3297 15.5084 29.393 15.2992 29.3923C13.5205 29.3859 11.7417 29.3852 9.963 29.3944C9.73319 29.3958 9.63358 29.3104 9.55247 29.1041C7.14906 23.0152 4.73995 16.9284 2.33013 10.8423C1.61081 9.02585 0.885806 7.21226 0.165066 5.39653C0.105301 5.2457 0.0590537 5.08917 0 4.91557C0.102455 4.90205 0.170758 4.88568 0.239772 4.88568C1.16471 4.88355 2.08965 4.87501 3.01459 4.89493C3.13981 4.89778 3.33333 5.01731 3.37673 5.12901C4.89079 9.02371 6.3899 12.9241 7.89185 16.8231C9.08787 19.9266 10.286 23.0294 11.4763 26.1351C11.5617 26.3585 11.6791 26.4438 11.921 26.4339C12.3949 26.4147 12.8702 26.4125 13.3433 26.4339C13.5888 26.4453 13.6941 26.357 13.7794 26.1336C14.9691 23.028 16.1679 19.9252 17.3646 16.8224C18.8545 12.9575 20.3465 9.09273 21.8278 5.22435C21.9232 4.97533 22.0363 4.87288 22.3102 4.87786C23.1875 4.89422 24.0655 4.88355 24.9427 4.88497C25.0359 4.88497 25.1284 4.89707 25.2714 4.90703H25.2707Z" fill="#fff"/>
<path d="M73.318 0.00142298C73.318 0.186411 73.318 0.314479 73.318 0.442547C73.318 1.69975 73.3123 2.95695 73.3208 4.21416C73.3258 4.94699 73.1771 4.88154 74.0088 4.88296C75.7875 4.88652 77.5663 4.88438 79.345 4.88438C79.4837 4.88438 79.6225 4.88438 79.7854 4.88438C79.7954 5.04447 79.8082 5.16044 79.8082 5.27641C79.8096 6 79.7968 6.72359 79.8139 7.44646C79.8203 7.72679 79.7335 7.81501 79.451 7.81288C77.7555 7.80221 76.0593 7.8079 74.3638 7.80861C74.1269 7.80861 73.8886 7.82355 73.6523 7.80505C73.3834 7.78371 73.3087 7.88758 73.3123 8.15155C73.3258 9.31341 73.3187 10.476 73.3187 11.6386C73.3187 15.5411 73.3158 19.4429 73.3229 23.3447C73.3229 23.7218 73.3379 24.1103 73.4261 24.4739C73.7114 25.6492 74.583 26.3579 75.8395 26.4056C76.9643 26.4482 78.0921 26.4383 79.2183 26.4212C79.572 26.4155 79.6644 26.5336 79.6545 26.868C79.6339 27.5788 79.6374 28.2917 79.6538 29.0025C79.6602 29.2864 79.5912 29.3988 79.281 29.3945C77.9412 29.3746 76.6008 29.4031 75.261 29.3675C74.3553 29.3433 73.4731 29.1448 72.6556 28.7371C71.1678 27.9964 70.3745 26.7492 70.1298 25.1391C70.0479 24.6026 70.0209 24.0534 70.0209 23.5098C70.0138 15.8356 70.0159 8.16222 70.0159 0.488083C70.0159 0.162931 70.1739 0.000711491 70.4898 0C71.4126 0 72.3354 0 73.318 0V0.00142298Z" fill="#fff"/>
<path d="M89.1157 29.372H85.8386C85.8386 29.2069 85.8386 29.0561 85.8386 28.9053C85.8393 21.9825 85.8386 15.059 85.8478 8.13615C85.8478 7.84942 85.744 7.80459 85.4985 7.80602C84.3253 7.81456 83.1513 7.79961 81.9788 7.81669C81.6664 7.82096 81.5668 7.72989 81.5746 7.41612C81.5939 6.59008 81.581 5.76262 81.581 4.90741C81.7369 4.89816 81.8514 4.88606 81.966 4.88606C84.2178 4.88535 86.4697 4.89175 88.7216 4.87895C89.0432 4.87681 89.1406 4.96006 89.1406 5.29232C89.1314 13.1991 89.1328 21.1059 89.1321 29.0134C89.1321 29.118 89.1228 29.2226 89.115 29.3727L89.1157 29.372Z" fill="#fff"/>
</g>
<defs>
<clipPath id="clip0_6478_486">
<rect width="135.868" height="30" fill="white"/>
</clipPath>
</defs>
</svg>
